<?xml version="1.0" encoding="utf-8"?>
<!-- Generator: Adobe Illustrator 16.0.0, SVG Export Plug-In . SVG Version: 6.00 Build 0)  -->
<!DOCTYPE svg PUBLIC "-//W3C//DTD SVG 1.1//EN" "http://www.w3.org/Graphics/SVG/1.1/DTD/svg11.dtd">
<svg version="1.1" id="Layer_1" xmlns="http://www.w3.org/2000/svg" xmlns:xlink="http://www.w3.org/1999/xlink" x="0px" y="0px"
	 width="272.986px" height="229.489px" viewBox="0 0 272.986 229.489" enable-background="new 0 0 272.986 229.489"
	 xml:space="preserve">
<g>
	
		<rect x="29.019" y="23.323" transform="matrix(-0.9943 0.1067 -0.1067 -0.9943 281.9088 201.8552)" fill="none" width="213.067" height="170.298"/>
	<g opacity="0.8">
		<path fill="#780F1A" d="M143.334,21.997c-0.953,1.349-2.03,2.866-2.175,4.444c0.594,1.181,1.88,0.107,2.004-0.215
			c4.148,2.358,5.125,7.082,9.911,8.126c-0.567,0.53-1.151,0.905-1.547,1.571c2.027,2.897,2.101,6.478,3.508,9.442
			c-2.524,2.608,0.701,5.068-1.037,7.75l-1.592-0.299c-0.896,1.809-0.631,4.276-1.063,6.035c2.523,1.755,2.974,4.513,3.611,7.56
			c-0.601,1.625-1.278,4.037-1.474,5.146c0.071-0.784-0.281-1.214-0.946-1.613c-2.161,0.233-1.229,3.097-3.316,3.941
			c-1.433-1.715-0.722-5.22-4.266-4.84c0.114,2.484,2.631,5.641,1.567,7.314c-0.135-1.232-0.866-2.246-1.585-3.103
			c-2.792,1.545-0.375,5.181-0.113,7.645c-0.011,2.809,3.665,5.065,1.785,7.918c-5.552-6.73-10.999-13.937-14.393-22.301
			c-4.484-8.401-5.854-18.232-6.626-26.874c0.614-8.792,9.812-10.247,13.856-16.14C139.995,21.419,142.197,23.054,143.334,21.997z"
			/>
		<path opacity="0.3" fill="#FFFFFF" d="M131.446,39.014c-0.077,0.787-1.231,0.133-0.668-0.396L131.446,39.014z"/>
		<path opacity="0.3" fill="#FFFFFF" d="M130.234,42.26c-1.289,1.074-1.521-1.084-1.893-1.665l1.04,0.977l1.202-1.842
			C130.996,40.622,129.365,41.417,130.234,42.26z"/>
		<path opacity="0.3" fill="#FFFFFF" d="M131.52,41.186l-0.443,0.205C131.214,41.22,131.164,40.758,131.52,41.186z"/>
		<path opacity="0.3" fill="#FFFFFF" d="M131.798,43.808l0.638,0.087L131.798,43.808z"/>
		<path opacity="0.3" fill="#FFFFFF" d="M132.462,45.605c0.326,0.123-0.107,0.48-0.221,0.804
			C132.355,46.085,132,45.655,132.462,45.605z"/>
		<path opacity="0.3" fill="#FFFFFF" d="M130.885,46.869c-0.598,0.221-0.993-0.521-0.715-0.861
			C130.647,46.113,130.818,46.251,130.885,46.869z"/>
		<polygon opacity="0.3" fill="#FFFFFF" points="127.989,47.491 127.583,46.597 127.891,46.565 		"/>
		<path opacity="0.3" fill="#FFFFFF" d="M134.524,53.179l-0.07,0.786L134.524,53.179z"/>
		<path opacity="0.3" fill="#FFFFFF" d="M133.59,54.679c-0.017,1.249,0.564,0.876-0.383,2.225c1.31-0.919-1.171-2.212,0.35-2.534
			C133.578,54.526,133.749,54.662,133.59,54.679z"/>
		<polygon opacity="0.3" fill="#FFFFFF" points="135.712,55.542 135.628,54.773 135.853,55.374 		"/>
		<path opacity="0.3" fill="#FFFFFF" d="M134.107,55.092l0.971,0.366L134.107,55.092z"/>
		<path opacity="0.3" fill="#FFFFFF" d="M129.194,55.777l0.956,0.209L129.194,55.777z"/>
		<path fill="#780F1A" d="M237.233,57.579c-0.719-0.857-0.883-2.396-1.826-2.45C237.051,54.481,237.716,56.28,237.233,57.579z"/>
		<path fill="#780F1A" d="M235.756,58.361c0.416-0.512,0.365-0.972,1.061-0.272c-1.114,1.215-3.438-0.097-2.508-1.598
			C235.031,57.351,234.218,58.526,235.756,58.361z"/>
		<path fill="#780F1A" d="M179.299,68.162c2.413,5.042-0.442,8.932,0.289,14.309c-2.343-0.061-3.545-2.582-5.425,0.269
			c-0.701,0.701,0.719,0.861,0.477,1.507c-1.061-1.131-2.383,1.037-3.584,1.479c0.285,1.213,1.067,2.688,0.705,3.664
			c-1.676,0.336-3.596-4.447-4.599-0.752l0.745,2.568c-2.504-0.04-0.688-4.911-3.8-4.89l-1.554,2.974
			c-0.427-1.047,1.023-3.541-1.148-3.464c-2.172,0.076-0.245,2.051-1.906,2.541c-1.607-1.851,1.477-6.545-2.359-5.978
			c-1.403-0.007,0.026,3.115-1.424,1.242c2.323-3.051-1.916-4.779,0.558-7.853c3.021-2.348-0.474-5.869,3.913-7.121
			c0.041-2.498,3.377-1.92,4.525-2.825c4.688,4.486,5.642-2.63,10.697-0.523C177.279,65.262,178.259,67.184,179.299,68.162z"/>
		
			<rect x="162.197" y="72.324" transform="matrix(-0.9947 0.1033 -0.1033 -0.9947 331.3586 128.5759)" opacity="0.3" fill="#FFFFFF" width="0.307" height="1.085"/>
		<path opacity="0.3" fill="#FFFFFF" d="M158.67,74.896c-0.443,0.205-0.185-0.291-0.201-0.443
			C158.778,74.419,158.654,74.743,158.67,74.896z"/>
		<polygon opacity="0.3" fill="#FFFFFF" points="160.453,75.486 160.537,74.854 161.221,75.402 		"/>
		<path opacity="0.3" fill="#FFFFFF" d="M161.457,76.157c-0.259,0.494-0.443,0.205-0.785-0.07
			C160.98,76.053,161.268,75.865,161.457,76.157z"/>
		<path opacity="0.3" fill="#FFFFFF" d="M160.476,78.601c-1.033,1.98-1.044-0.98-2.752-0.953c0.668,0.396,1.336-0.611,0.96-1.192
			C158.902,77.054,159.67,78.376,160.476,78.601z"/>
		<path opacity="0.3" fill="#FFFFFF" d="M175.886,75.543c-0.547-0.718-0.789-0.074-1.249-0.023
			C175.171,74.688,175.483,74.654,175.886,75.543z"/>
		<path opacity="0.3" fill="#FFFFFF" d="M157.778,76.709c0.013,0.153,0.047,0.46-0.088,0.629
			C157.657,77.03,157.452,76.587,157.778,76.709z"/>
		<polygon opacity="0.3" fill="#FFFFFF" points="156.509,77.933 156.881,77.114 156.814,77.901 		"/>
		<path opacity="0.3" fill="#FFFFFF" d="M162.272,77.94c-0.185-0.292-1.42-0.16-0.869-0.843
			C161.604,77.544,161.879,77.201,162.272,77.94z"/>
		<path opacity="0.3" fill="#FFFFFF" d="M174.705,76.137l0.372,0.584L174.705,76.137z"/>
		<polygon opacity="0.3" fill="#FFFFFF" points="161.651,79.408 161.55,78.487 161.913,78.913 		"/>
		<path opacity="0.3" fill="#FFFFFF" d="M175.292,78.725c-1.245-1.426-0.157,1.417-1.262-0.178
			C174.546,77.557,175.104,78.433,175.292,78.725z"/>
		<path opacity="0.3" fill="#FFFFFF" d="M159.869,80.224c0.547,0.72,1.041,0.979,1.792,0.74c-1.278-0.326-2.755,0.453-3.004-0.453
			C159.13,80.615,159.13,80.615,159.869,80.224z"/>
		<polygon opacity="0.3" fill="#FFFFFF" points="157.04,81.461 157.439,80.796 157.344,81.429 		"/>
		
			<rect x="173.642" y="79.833" transform="matrix(-0.9943 0.107 -0.107 -0.9943 355.0823 142.4773)" opacity="0.3" fill="#FFFFFF" width="0.155" height="1.86"/>
		<path opacity="0.3" fill="#FFFFFF" d="M161.943,83.584c-0.92,0.099-0.631-0.089-1.588-0.297l0.766,1.323l-0.175-0.138
			l-0.208,0.957c-0.949-1.613,0.027-2.65,1.007-3.692C161.228,82.729,162.218,83.245,161.943,83.584z"/>
		<path opacity="0.3" fill="#FFFFFF" d="M163.746,82.924c-0.296,0.188-0.635-0.087-0.803-0.225
			c-0.896,0.406,0.266,1.061,0.114,1.078c-1.218,0.287,0.07-0.786-0.748-1.165C162.786,82.716,163.954,81.968,163.746,82.924z"/>
		<path opacity="0.3" fill="#FFFFFF" d="M165.998,83.617c-0.409-0.891-1.369,0.304-1.037-0.98
			C165.504,83.357,166.414,83.105,165.998,83.617z"/>
		<path opacity="0.3" fill="#FFFFFF" d="M164.041,85.697c-0.014-1.554-2.051-0.245-0.657-1.799
			C163.876,84.159,165.068,85.119,164.041,85.697z"/>
		<polygon opacity="0.3" fill="#FFFFFF" points="165.46,85.858 165.226,85.103 165.397,85.238 		"/>
		
			<rect x="163.295" y="85.616" transform="matrix(-0.9943 0.107 -0.107 -0.9943 335.009 154.0365)" opacity="0.3" fill="#FFFFFF" width="0.155" height="0.776"/>
		<path fill="#780F1A" d="M236.293,79.343c0.274,1.064-0.091,2.038-0.638,2.719c-0.238-0.752,1.281-1.071,0.262-1.9l-0.41,0.514
			c-1.658-0.913,1.031-1.98-1.141-1.903c-1.095-0.04-0.977,1.039-1.377,1.706c0.114,1.081,1.289,3.292,2.078,1.96l-1.299,0.92
			c-1.319-0.638-1.229-2.675-0.862-3.652C233.699,78.376,235.464,77.406,236.293,79.343z"/>
		<path fill="#780F1A" d="M151.082,97.062l0.332,1.682L151.082,97.062z"/>
		<path fill="#780F1A" d="M149.584,99.096l1.081,2.841L149.584,99.096z"/>
		<polygon fill="#780F1A" points="152.394,103.466 152.666,103.129 153.179,103.54 		"/>
		<path fill="#780F1A" d="M151.339,105.297c0.494,0.259-0.073,0.786-0.04,1.093C151.266,106.083,151.031,105.331,151.339,105.297z"
			/>
		<path fill="#780F1A" d="M182.495,106.628c0.745,2.567,3.015,4.816,1.275,7.499c0.648,4.605-0.775,10.214-4.598,12.338
			c-0.231,6.569,6.696,11.593,5.545,18.263c-2.91,0.468-2.599,3.397-4.965,4.585c-0.02,1.25,0.111,2.48-0.715,3.504
			c-1.208-1.116,0.997-5.25-1.812-5.26l0.309,4.33c-0.523-0.567-0.248-2.31-0.822-3.342c-2.275-0.844-3.363,2.08-3.182,3.771
			c-1.642-0.758-0.299-2.772-0.446-4.158c-1.95-0.725-0.709,2.101-2.592,1.994c3.381,2.44,4.236,6.088,3.263,10.089
			c-1.523,1.724-1.745,5.488-4.384,5.614c-1.449-0.468-1.731-3.086-3.464-1.809c-1.806,2.062-2.272,3.516-2.128,6.305
			c-0.621,1.472-1.866,0.045-2.514-0.196c-0.406-0.891-1.021-2.227-1.99-2.591c1.218,2.674,0.145,5.75-0.974,8.363
			c-1.548,0.168-3.639-1.947-4.286-3.591c-0.332-1.675-0.225-3.56,0.876-4.926c1.067-1.671,2.806,0.012,4.024-0.275
			c-2.102-2.113-4.059-4.395-3.655-7.866c0.386-2.226,0.974-4.001,2.812-5.758c2.008-1.619,3.562-0.227,5.663,0.485
			c0.711-2.106,1.913-3.947,4.35-4.523l1.91,0.421c-0.369-4.951-2.611-9.851-0.786-14.567c1.021-2.135,1.155-5.267,4.062-5.736
			c1.102-1.363,3.545-0.379,5.028,0.396c0.145-1.571,0.362-3.934-1.591-4.659c-0.272,0.34,0.916,2.705-0.483,2.702
			c-1.775-1.992-3.001-4.666-2.8-7.183c-1.423-0.156-1.087,1.521-2.336,1.5c0.416-4.877-3.847-9.72-0.121-14.171
			c-0.52-1.97,2.139-3.347,2.951-4.525C177.068,102.536,180.663,104.02,182.495,106.628z"/>
		
			<rect x="151.554" y="106.98" transform="matrix(-0.9943 0.107 -0.107 -0.9943 313.8712 197.7446)" fill="#780F1A" width="0.155" height="0.621"/>
		<path opacity="0.3" fill="#FFFFFF" d="M173.993,105.826c-0.771,0.082-0.372-0.583-0.252-0.908
			C173.312,105.275,173.875,106.148,173.993,105.826z"/>
		<path opacity="0.3" fill="#FFFFFF" d="M173.288,106.524c-0.956-0.211-0.054,0.943-0.157,1.418c0.396-0.663,1.145,0.502,1.51-0.472
			c-0.225,0.802,0.387,0.735-0.248,2.054c-0.617,0.065-2.722-0.645-2.833,1.235c1.296-2.477,0.712-2.101,1.198-4.803
			L173.288,106.524z"/>
		<path fill="#780F1A" d="M153.843,108.299l-0.396,0.667L153.843,108.299z"/>
		<path opacity="0.3" fill="#FFFFFF" d="M179.675,106.463c0.114,1.074,0.89-0.41,0.698,0.702l-0.873-0.839
			C179.514,106.48,180.259,106.087,179.675,106.463z"/>
		<path opacity="0.3" fill="#FFFFFF" d="M178.507,107.208l0.769-0.081L178.507,107.208z"/>
		<path fill="#780F1A" d="M173.765,108.031c-0.447,0.203-0.091,0.634-0.229,0.806l-0.39-0.738L173.765,108.031z"/>
		<path opacity="0.3" fill="#FFFFFF" d="M181.911,111.364l-1.997-1.187l0.309-0.034c-0.131-1.231-1.017-0.827-0.54-2.123
			C180.367,108.571,181.374,110.642,181.911,111.364z"/>
		<polygon opacity="0.3" fill="#FFFFFF" points="175.285,109.115 175.235,108.653 175.849,108.588 		"/>
		<path opacity="0.3" fill="#FFFFFF" d="M179.028,109.182c0.53,0.564,0.218,2.004-0.504,2.544c-1.084,0.117-3.336-0.574-2.796,1.549
			l-0.114-1.079l-0.278,0.339c-0.061-2.017-1.541,0.168-1.971,0.527c0.847-0.873-1.104-1.596,0.131-1.729l0.018,0.155
			c-0.051-0.463,1.57,0.144,1.456-0.938c-0.147,2.979,0.84-0.869,2.015,1.341c-0.41-0.888,1.182-0.59,0.449-1.604
			c0.752-0.238,1.191,2.366,1.759,0.436c-1.621-0.607,0.299-1.591-1.339-2.35L179.028,109.182z"/>
		<path opacity="0.3" fill="#FFFFFF" d="M174.198,110.632c-0.534,0.839-1.299-0.483-1.618-0.604
			C172.949,110.612,173.98,110.033,174.198,110.632z"/>
		<path opacity="0.3" fill="#FFFFFF" d="M176.326,110.092c-0.309,0.034-0.45,0.205-0.91,0.255
			C175.705,110.159,176.017,110.125,176.326,110.092z"/>
		<path opacity="0.3" fill="#FFFFFF" d="M181.099,109.582l0.799,0.225L181.099,109.582z"/>
		<path opacity="0.3" fill="#FFFFFF" d="M171.009,112.844l-0.262,0.5l0.06-0.943C170.958,112.384,170.992,112.693,171.009,112.844z"
			/>
		<path opacity="0.3" fill="#FFFFFF" d="M172.533,112.527c-0.926,0.099-0.332,1.284-0.826,1.025
			C171.348,113.123,172.002,111.961,172.533,112.527z"/>
		<path opacity="0.3" fill="#FFFFFF" d="M181.427,112.663c1.145,0.5-1.158-0.655-1.168,0.748c-0.708-0.857,0.145-1.574,0.899-1.811
			L181.427,112.663z"/>
		<path opacity="0.3" fill="#FFFFFF" d="M179.474,113.341l-0.443,0.201c0.121-0.322,0.229-0.802,0.537-0.834
			C179.584,112.861,179.787,113.307,179.474,113.341z"/>
		<path opacity="0.3" fill="#FFFFFF" d="M177.131,113.28c-0.101,0.477,0.322,1.524-0.044,2.501c0.366-0.977-1.242-1.43-0.725-2.417
			l0.234,0.752L177.131,113.28z"/>
		<path opacity="0.3" fill="#FFFFFF" d="M174.443,114.348c-1.014,0.735,0.815,1.782-0.729,1.947
			c-1.023-0.822-2.326,0.098-2.752-0.948C173.577,116.466,171.533,113.415,174.443,114.348z"/>
		<path fill="#780F1A" d="M173.6,115.219c-0.785-0.072-0.685-0.552-0.084-0.772C173.395,114.771,173.892,115.033,173.6,115.219z"/>
		<polygon opacity="0.3" fill="#FFFFFF" points="177.917,114.754 178.29,113.935 178.206,114.569 		"/>
		<polygon opacity="0.3" fill="#FFFFFF" points="174.987,115.069 175.382,114.401 175.721,114.677 		"/>
		<polygon opacity="0.3" fill="#FFFFFF" points="180.152,115.294 180.259,114.814 180.441,115.106 		"/>
		<path opacity="0.3" fill="#FFFFFF" d="M178.695,116.228c-0.631-0.087-0.131-1.23,0.212-0.957L178.695,116.228z"/>
		<path opacity="0.3" fill="#FFFFFF" d="M182.562,115.972c-0.443,0.202-1.094-0.043-1.353,0.457
			C181.266,115.486,181.693,115.13,182.562,115.972z"/>
		<path opacity="0.3" fill="#FFFFFF" d="M172.143,119.114c-0.013-0.155,0.437-0.359,0.245-0.648
			c-0.379,0.819,1.501,2.33-0.077,2.192c-0.234-0.759,0.007-1.406-0.843-2.093L172.143,119.114z"/>
		
			<rect x="174.888" y="118.191" transform="matrix(-0.994 0.109 -0.109 -0.994 361.8052 217.2213)" opacity="0.3" fill="#FFFFFF" width="0.152" height="0.621"/>
		<path fill="#780F1A" d="M166.591,122.518l0.44,1.198c-0.222-0.598-0.648-1.646-1.48-2.18c-1.611,0.955-0.138,0.169-1.92-0.416
			c-1.679,1.739-0.745,3.197-0.715,4.909c1.675-0.335,1.339,2.348,2.786,1.259c0.208-0.957,1.03-1.98,1.087-2.922
			c-0.023,1.25-0.678,2.412-1.486,3.59c-1.434-0.315-2.695-1.893-2.843-3.279c-0.306-1.371,0.144-2.977,1.467-3.743
			C164.994,120.662,166.182,121.625,166.591,122.518z"/>
		<path opacity="0.3" fill="#FFFFFF" d="M177.4,120.111c0.234,0.752-0.175-0.138-0.343-0.275
			C177.208,119.819,177.383,119.957,177.4,120.111z"/>
		<path opacity="0.3" fill="#FFFFFF" d="M181.065,119.406l0.215,0.597L181.065,119.406z"/>
		<path fill="#780F1A" d="M236.189,121.902c3.417,1.347,3.055,6.688,3.85,9.717c0.172,4.503-0.685,9.581-3.373,13.609
			c-3.756,2.742-5.965,8.279-10.714,10.503c0.349,1.833-0.953,2.752-0.306,4.397c-1.168,0.749-0.97,2.598-2.611,1.837
			c-3.259-2.764,1.92-5.349-0.262-8.232c-2.215-3.188-5.501-6.267-5.421-9.858c1.41-1.399,2.562-3.706,3.136-5.637
			c-0.618-2.896-0.662-6.164-1.85-8.529c-0.366-3.389,3.863-4.624,4.85-7.067c1.87-1.446,4.095-1.064,5.776-2.801
			C231.983,120.483,234.383,119.603,236.189,121.902z"/>
		<path fill="#780F1A" d="M70.847,140.899c0.369,1.985-0.359,3.932-1.439,5.453c-1.608-0.45-3.229-1.057-3.424-2.905
			c0.322-1.281,0.309-2.838,1.463-3.741C68.766,138.941,70.25,139.716,70.847,140.899z"/>
		<path opacity="0.3" fill="#FFFFFF" d="M66.96,141.002l-0.175,1.269L66.96,141.002z"/>
		<path opacity="0.3" fill="#FFFFFF" d="M70.273,142.83l-0.185-0.292c-0.19,1.113-0.741,1.795-1.278,2.63
			c-0.903,0.255-1.135-1.903-1.775-0.587c-0.702-0.702,0.869-2.118,1.054-3.229c0.467-0.05,1.131,0.346,1.406,0.005l-0.222-0.603
			C70.333,140.485,69.904,142.247,70.273,142.83z"/>
		<polygon opacity="0.3" fill="#FFFFFF" points="176.366,135.182 176.903,134.346 177.718,134.725 		"/>
		<path opacity="0.3" fill="#FFFFFF" d="M176.258,135.658l-0.157,1.423L176.258,135.658z"/>
		<path opacity="0.3" fill="#FFFFFF" d="M180.867,139.372c-0.647-0.24-0.389-0.736-0.131-1.23L180.867,139.372z"/>
		<path opacity="0.3" fill="#FFFFFF" d="M174.587,140.359c-0.191-0.29-0.997,0.888-1.098-0.039L174.587,140.359z"/>
		<path opacity="0.3" fill="#FFFFFF" d="M179.273,140.481c0.033,0.306,0.526,0.566,0.788,0.071c0.148,1.386-1.883-0.111-1.413,1.396
			c0.35-1.127,2.068,0.403,1.783,0.591c-1.068,0.269-3.307-0.27-2.354,1.343c0.033,0.305,0.235-2.207-1.074-1.287l0.051,0.461
			c-0.749-1.165,0.225-0.804,1.271-1.229l-0.647-0.24C178.229,140.903,178.708,141.009,179.273,140.481z"/>
		<path opacity="0.3" fill="#FFFFFF" d="M175.725,142.262c-0.635-0.089-0.098-0.923,0.178-1.264L175.725,142.262z"/>
		<path opacity="0.3" fill="#FFFFFF" d="M174.708,142.996c-0.255,0.495-0.869,0.561-1.212,0.287
			C173.789,143.096,174.457,142.089,174.708,142.996z"/>
		<polygon opacity="0.3" fill="#FFFFFF" points="173.456,144.378 173.271,144.086 174.056,144.157 		"/>
		<polygon opacity="0.3" fill="#FFFFFF" points="179.072,144.398 179.464,143.734 179.703,144.486 		"/>
		<path opacity="0.3" fill="#FFFFFF" d="M176.007,144.884c0.033,0.307-0.275,0.341-0.4,0.663l0.645-1.315
			C176.454,144.681,176.671,145.278,176.007,144.884z"/>
		
			<rect x="181.057" y="143.702" transform="matrix(-0.994 0.1096 -0.1096 -0.994 377.1091 267.305)" opacity="0.3" fill="#FFFFFF" width="0.308" height="0.621"/>
		<path opacity="0.3" fill="#FFFFFF" d="M177.407,144.889l0.788,0.07L177.407,144.889z"/>
		<path opacity="0.3" fill="#FFFFFF" d="M174.087,145.869l0.197,0.447L174.087,145.869z"/>
		<path opacity="0.3" fill="#FFFFFF" d="M175.604,146.953l0.218,0.599c-0.601,0.22-1.023-0.828-1.587-0.297
			C174.53,145.664,175.053,147.634,175.604,146.953z"/>
		<path opacity="0.3" fill="#FFFFFF" d="M177.605,146.738l0.529,0.567L177.605,146.738z"/>
		<polygon opacity="0.3" fill="#FFFFFF" points="167.27,156.418 167.833,155.892 167.73,156.37 		"/>
		
			<rect x="158.595" y="157.968" transform="matrix(-0.9952 0.0976 -0.0976 -0.9952 332.0473 300.4618)" opacity="0.3" fill="#FFFFFF" width="0.155" height="0.775"/>
		<polygon opacity="0.3" fill="#FFFFFF" points="161.775,160.438 161.523,159.53 162.054,160.095 		"/>
		<path fill="#780F1A" d="M137.672,163.806c4.256,1.879,5.894,7.001,6.048,11.348c-0.745,3.199-2.262,6.477-3.833,9.298
			c-1.53,1.722-3.507,0.688-5.088,1.946c-1.165-0.654-1.548-2.796-3.417-2.749c-1.812-3.856-5.699-8.116-3.578-13.02
			C127.737,165.649,133.053,162.896,137.672,163.806z"/>
		<path fill="#780F1A" d="M49.003,188.597c0.996,3.478,2.064,7.569,0.563,11.002c-0.97,2.598-3.934,4.008-6.542,4.444
			c-0.711-2.262-4.024-2.687-4.891-4.931c-1.204-2.521-0.409-5.255,0.235-7.972c2.078-2.407,4.403-6.864,8.489-5.119L49.003,188.597
			z"/>
		<polygon opacity="0.3" fill="#FFFFFF" points="136.474,181.7 136.255,181.099 136.41,181.083 		"/>
		<path opacity="0.3" fill="#FFFFFF" d="M43.566,193.076c-0.41,0.512-1.494,0.626-0.793,1.33
			C42.025,193.243,42.314,193.055,43.566,193.076z"/>
		<path opacity="0.3" fill="#FFFFFF" d="M43.62,196.499l0.685,0.55L43.62,196.499z"/>
	</g>
</g>
</svg>
