<?xml version="1.0" encoding="utf-8"?>
<!-- Generator: Adobe Illustrator 16.0.0, SVG Export Plug-In . SVG Version: 6.00 Build 0)  -->
<!DOCTYPE svg PUBLIC "-//W3C//DTD SVG 1.1//EN" "http://www.w3.org/Graphics/SVG/1.1/DTD/svg11.dtd">
<svg version="1.1" id="Layer_1" xmlns="http://www.w3.org/2000/svg" xmlns:xlink="http://www.w3.org/1999/xlink" x="0px" y="0px"
	 width="1458.146px" height="408.041px" viewBox="-39.685 95.329 1458.146 408.041"
	 enable-background="new -39.685 95.329 1458.146 408.041" xml:space="preserve">
<g>
	<path fill="#FFFFFF" d="M642.808,251.72c-1.047,9.869-2.013,18.694-2.895,27.525c-0.175,1.743-0.892,2.27-2.617,2.131
		c-4.893-0.396-9.848-1.224-14.692-0.831c-15.28,1.241-30.52,2.99-45.781,4.486c-6.601,0.646-13.214,1.154-19.822,1.726
		c-2.501,0.216-5.009,0.383-7.504,0.655c-9.163,1-18.281,0.398-27.351-0.92c-6.286-0.914-12.636-1.729-18.753-3.357
		c-5.601-1.491-10.964-3.944-15.531-7.738c-2.681-2.229-5.273-4.565-7.98-6.763c-7.552-6.129-7.945-17.115-4.668-24.693
		c3.752-8.671,9.893-15.012,18.681-18.787c6.418-2.756,12.541-6.284,19.101-8.603c9.938-3.514,19.945-6.899,30.642-7.741
		c18.179-1.426,36.204,0.325,54.2,2.29c14.688,1.604,28.736,5.96,42.419,11.471c1.241,0.5,2.448,1.151,3.559,1.898
		c1.996,1.344,2.996,3.027,2.51,5.696C644.957,237.667,643.851,245.216,642.808,251.72z"/>
	<path fill="#FFFFFF" d="M115.897,159.418c9.5,1.802,19.055,3.366,28.484,5.487c7.158,1.61,14.156,3.928,21.224,5.937
		c2.673,0.759,3.867,2.274,3.713,5.308c-0.674,13.263-1.123,26.538-1.621,39.808c-0.043,1.149,0.071,2.317,0.228,3.46
		c0.371,2.697-0.554,3.49-3.288,3.2c-9.213-0.972-18.441-1.25-27.426,1.471c-4.103,1.243-7.957,3.286-12.03,4.65
		c-7.047,2.359-14.184,4.452-21.269,6.693c-17.007,5.381-34.407,7.726-52.228,6.757c-6.609-0.359-13.208-0.884-19.816-1.248
		c-6.385-0.352-11.412-4.012-16.794-6.785c-8.03-4.137-10.677-11.768-12.979-19.785c-1.988-6.923,1.942-11.871,4.952-17.135
		c3.983-6.966,9.058-13.131,15.124-18.379c6.86-5.932,14.041-11.409,23.115-13.67c1.641-0.41,3.26-1.026,4.79-1.755
		c5.708-2.717,11.887-3.053,17.998-4.008c11.718-1.835,23.454-1.113,35.186-0.929c4.188,0.066,8.366,0.854,12.548,1.313
		C115.836,159.678,115.868,159.548,115.897,159.418z"/>
	<path fill="#FFFFFF" d="M1226.53,366.442c8.616,1.94,15.606,3.167,22.378,5.145c5.131,1.498,9.962,4.003,14.965,5.963
		c7.427,2.91,14.808,5.976,22.374,8.473c2.875,0.949,6.208,0.525,9.335,0.691c2.473,0.134,5.001-0.048,7.403,0.425
		c1.31,0.259,2.894,1.332,3.508,2.487c1.328,2.504,2.62,5.222,3.031,7.987c1.875,12.596,6.256,24.479,10.005,36.542
		c0.876,2.816,0.273,5.08-2.275,5.596c-8.953,1.813-17.885,4.031-26.943,4.941c-11.113,1.117-22.363,0.783-33.517,1.609
		c-11.266,0.835-22.152-1.52-33.126-3.104c-8.681-1.256-17.429-2.54-25.873-4.822c-12.595-3.399-24.607-8.498-35.396-16.002
		c-6.571-4.572-9.808-11.386-9.683-19.148c0.097-6.075,4.712-10.168,9.405-13.419c8.109-5.62,16.467-10.929,25.805-14.331
		c8.732-3.18,17.332-6.812,26.78-7.657C1219.215,367.414,1223.598,365.442,1226.53,366.442z"/>
	<path fill="#FFFFFF" d="M752.728,328.342c13.377,2.611,24.649,7.739,35.354,14.335c5.256,3.238,10.473,6.742,16.151,9.031
		c7.347,2.966,15.1,4.967,22.75,7.129c3.407,0.966,4.161,1.498,5.051,5.623c1.817,8.416,3.66,16.829,5.553,25.229
		c1.061,4.703,2.321,9.36,3.336,14.071c0.723,3.349-0.127,4.889-3.507,5.372c-5.914,0.847-11.88,1.401-17.842,1.826
		c-4.632,0.331-9.307,0.571-13.935,0.327c-6.616-0.351-13.201-1.235-19.81-1.795c-7.044-0.595-14.095-1.079-21.145-1.607
		c-10.667-0.796-21.211-2.266-31.44-5.573c-6.221-2.013-12.676-3.451-18.659-6.004c-5.398-2.301-11.002-5.004-15.239-8.914
		c-5.24-4.835-10.662-9.832-13.881-16.564c-4.067-8.507-3.351-16.579,1.398-24.569c3.002-5.051,7.298-8.021,12.868-9.767
		c4.494-1.409,8.604-4.087,13.122-5.37C726.238,327.317,739.943,327.206,752.728,328.342z"/>
	<path fill="#FFFFFF" d="M1085.512,287.148c1.717,0.176,4.391,0.346,7.027,0.758c2.095,0.328,2.501,2.096,2.594,3.856
		c0.175,3.298,0.127,6.613,0.39,9.903c0.903,11.272,1.852,22.539,2.91,33.795c0.238,2.535-0.687,3.714-3.089,3.369
		c-11.429-1.639-21.272,3.217-31.143,7.669c-7.021,3.164-13.686,7.118-20.703,10.295c-4.051,1.836-8.415,3.135-12.764,4.137
		c-11.084,2.556-22.184,5.116-33.387,7.04c-5.147,0.883-10.55,0.301-15.836,0.331c-2.062,0.012-4.147,0.047-6.187-0.207
		c-10.902-1.354-20.789-5.373-28.421-13.289c-5.354-5.553-6.48-12.715-4.099-20.294c2.567-8.177,8.798-13.599,14.382-19.485
		c6.591-6.948,14.929-11.217,23.488-15.324c13.881-6.662,28.769-9.132,43.653-11.939c11.101-2.091,22.285-1.909,33.469-2.032
		c6.8-0.073,13.604,0.078,20.399,0.284C1080.33,286.082,1082.447,286.657,1085.512,287.148z"/>
	<path fill="#FFFFFF" d="M296.177,343.338c-6.473-1.659-14.48-3.643-22.45-5.77c-14.184-3.788-26.968-10.603-39.084-18.675
		c-6.077-4.047-10.396-9.934-15.08-15.487c-5.803-6.879-5.64-14.375-4.157-22.348c1-5.373,4.845-8.34,9.462-10.096
		c6.765-2.572,13.667-4.85,20.635-6.813c17.662-4.981,34.589-2.573,50.931,5.478c9.156,4.512,18.341,9.024,27.763,12.931
		c5.337,2.211,11.144,3.354,16.804,4.694c6.608,1.565,13.276,2.882,19.941,4.193c4.779,0.939,4.833,0.847,5.782,5.62
		c2.308,11.608,4.567,23.227,6.87,34.836c0.226,1.142,0.533,2.279,0.936,3.369c1.598,4.312-0.715,7.201-4.778,7.816
		c-11.694,1.771-23.398,3.783-35.177,4.601c-7.159,0.496-14.477-0.906-21.695-1.715C307.81,345.403,302.787,344.399,296.177,343.338
		z"/>
	<path fill="#FFFFFF" d="M658.303,241.562c0.561-2.335,0.973-4.723,1.719-6.998c1.252-3.822,1.64-4.219,5.728-3.577
		c10.524,1.655,20.736,4.527,29.785,10.307c5.175,3.303,10.276,6.959,14.631,11.247c5.388,5.306,8.638,11.96,7.5,19.927
		c-1.38,9.677-8.646,16.924-18.115,19.362c-13.33,3.431-26.305,2.264-39.235-1.732c-4.222-1.304-5.576-2.851-5.216-7.187
		c1.146-13.763,2.455-27.511,3.699-41.266C658.634,241.617,658.468,241.589,658.303,241.562z"/>
	<path fill="#FFFFFF" d="M886.269,351.418c7.622,0.869,14.365,3.886,20.18,9.095c3.266,2.925,4.946,6.825,5.586,10.786
		c0.43,2.659-0.882,5.801-2.009,8.476c-3.998,9.479-11.063,16.178-20.008,20.979c-9.397,5.045-19.629,7.288-30.104,8.579
		c-2.039,0.251-4.122,0.254-6.18,0.185c-2.321-0.082-2.854-1.215-1.948-3.315c0.363-0.838,0.539-1.913,0.37-2.8
		c-2.538-13.291-5.103-26.579-7.765-39.85c-0.873-4.35,0.792-7.866,5.079-9.165C861.472,350.753,873.699,349.457,886.269,351.418z"
		/>
	<path fill="#FFFFFF" d="M1129.921,286.826c13.002,2.278,24.257,5.463,33.642,13.154c5.75,4.708,9.95,10.404,9.355,18.41
		c-0.656,8.844-5.338,15.232-12.696,19.654c-8.98,5.396-18.829,8.366-29.28,8.997c-2.583,0.155-5.231-0.735-7.845-1.154
		c-2.062-0.33-4.168-0.523-6.164-1.092c-0.714-0.203-1.568-1.264-1.677-2.03c-0.65-4.56-1.167-9.139-1.604-13.725
		c-0.945-9.886-1.765-19.788-2.753-29.669c-0.238-2.36-0.912-4.683-1.449-7.006c-0.595-2.558,2.287-6.033,5.133-5.977
		C1120.131,286.497,1125.678,286.701,1129.921,286.826z"/>
	<path fill="#FFFFFF" d="M1361.344,370.388c5.278,1.227,10.86,2.805,15.695,6.322c7.368,5.359,9.547,13.096,6.435,23.044
		c-1.974,6.305-6.032,11.163-10.911,15.367c-7.415,6.392-15.965,10.877-25.035,14.443c-2.287,0.898-4.463,2.075-6.732,3.027
		c-1.522,0.639-2.604,0.087-3.097-1.532c-2.948-9.679-5.891-19.358-8.862-29.031c-1.29-4.197-2.617-8.386-3.989-12.556
		c-0.5-1.524-1.31-2.953-1.745-4.491c-0.409-1.452-0.472-2.997-0.757-4.49c-0.146-0.766-0.345-1.547-0.682-2.241
		c-0.757-1.553-0.277-2.713,1.209-3.229C1335.209,370.755,1347.829,368.68,1361.344,370.388z"/>
	<path fill="#FFFFFF" d="M419.093,284.209c6.01,1.096,11.558,3.173,16.519,6.858c9.911,7.364,11.156,18.093,3.147,27.5
		c-5.36,6.301-12.274,10.18-19.935,12.76c-7.24,2.439-14.636,4.271-22.403,4.141c-2.015-0.033-3.004-0.79-3.516-2.541
		c-0.501-1.722-1.025-3.439-1.458-5.18c-2.704-10.883-5.389-21.769-8.065-32.656c-0.426-1.731-0.768-3.482-1.179-5.217
		c-0.359-1.513-0.074-2.533,1.6-3.127C395.348,282.652,407.137,282.201,419.093,284.209z"/>
	<path fill="#FFFFFF" d="M192.512,230.653c-5.43-0.812-6.081-1.598-5.896-7.125c0.531-15.775,1.064-31.552,1.597-47.327
		c0.124-3.703,0.211-3.069,3.655-3.55c7.831-1.093,13.96,2.825,20.44,5.897c6.606,3.133,12.475,7.286,18.079,12.021
		c8.137,6.876,8.536,15.486,6.354,24.694c-1.501,6.343-6.602,9.687-12.239,11.949C214.199,231.346,203.478,232.31,192.512,230.653z"
		/>
</g>
</svg>
